<svg width="46" height="43" viewBox="0 0 46 43" fill="none" xmlns="http://www.w3.org/2000/svg">
<path d="M30 11L26.5 3.5L34.5 4L38 11.5L30 11Z" fill="#E47DDA"/>
<path d="M24.5 18L21 10.5L26.5 3.5L30 11L24.5 18Z" fill="#823179"/>
<path d="M24.5 18L30 11L38 11.5L32.5 18.5L24.5 18Z" fill="#BF357F"/>
<path d="M34.6231 23.9658L26.751 21.4105L32.5726 15.9007L40.4448 18.4559L34.6231 23.9658Z" fill="#E47DDA"/>
<path d="M35.9916 32.7622L28.1195 30.207L26.751 21.4105L34.6231 23.9658L35.9916 32.7622Z" fill="#823179"/>
<path d="M35.9915 32.7623L34.6231 23.9658L40.4447 18.456L41.8132 27.2524L35.9915 32.7623Z" fill="#BF357F"/>
<path d="M23.1046 32.5638L15.9023 36.6415L15.7731 28.6269L22.9754 24.5493L23.1046 32.5638Z" fill="#E47DDA"/>
<path d="M30.5147 37.4976L23.3124 41.5753L15.9025 36.6415L23.1047 32.5638L30.5147 37.4976Z" fill="#823179"/>
<path d="M30.5146 37.4977L23.1046 32.5638L22.9754 24.5493L30.3853 29.4831L30.5146 37.4977Z" fill="#BF357F"/>
<path d="M11.2152 24.0296L5.06299 18.4934L12.6224 15.8278L18.7746 21.364L11.2152 24.0296Z" fill="#E47DDA"/>
<path d="M8.88737 32.6222L2.73512 27.086L5.06278 18.4934L11.215 24.0297L8.88737 32.6222Z" fill="#823179"/>
<path d="M8.88746 32.6222L11.2151 24.0297L18.7745 21.3641L16.4469 29.9566L8.88746 32.6222Z" fill="#BF357F"/>
<path d="M15.177 10.1199L6.92627 10.7717L10.1963 3.45345L18.447 2.80166L15.177 10.1199Z" fill="#E47DDA"/>
<path d="M19.8075 17.7231L11.5567 18.3749L6.92614 10.7718L15.1769 10.12L19.8075 17.7231Z" fill="#823179"/>
<path d="M19.8077 17.7231L15.1771 10.1199L18.4471 2.80163L23.0777 10.4048L19.8077 17.7231Z" fill="#BF357F"/>
</svg>
