<svg width="81" height="12" viewBox="0 0 81 12" fill="none" xmlns="http://www.w3.org/2000/svg">
<path d="M7.55273 5.00977C7.55273 5.8457 7.41211 6.57617 7.13086 7.20117C6.84961 7.82227 6.45117 8.29688 5.93555 8.625C5.41992 8.95312 4.81836 9.11719 4.13086 9.11719C3.45898 9.11719 2.86328 8.95312 2.34375 8.625C1.82422 8.29297 1.41992 7.82227 1.13086 7.21289C0.845703 6.59961 0.699219 5.89062 0.691406 5.08594V4.4707C0.691406 3.65039 0.833984 2.92578 1.11914 2.29688C1.4043 1.66797 1.80664 1.1875 2.32617 0.855469C2.84961 0.519531 3.44727 0.351562 4.11914 0.351562C4.80273 0.351562 5.4043 0.517578 5.92383 0.849609C6.44727 1.17773 6.84961 1.65625 7.13086 2.28516C7.41211 2.91016 7.55273 3.63867 7.55273 4.4707V5.00977ZM6.43359 4.45898C6.43359 3.44727 6.23047 2.67188 5.82422 2.13281C5.41797 1.58984 4.84961 1.31836 4.11914 1.31836C3.4082 1.31836 2.84766 1.58984 2.4375 2.13281C2.03125 2.67188 1.82227 3.42188 1.81055 4.38281V5.00977C1.81055 5.99023 2.01562 6.76172 2.42578 7.32422C2.83984 7.88281 3.4082 8.16211 4.13086 8.16211C4.85742 8.16211 5.41992 7.89844 5.81836 7.37109C6.2168 6.83984 6.42188 6.08008 6.43359 5.0918V4.45898ZM10.2457 2.66016L10.2809 3.45703C10.7652 2.84766 11.398 2.54297 12.1793 2.54297C13.5191 2.54297 14.1949 3.29883 14.2066 4.81055V9H13.1227V4.80469C13.1187 4.34766 13.0133 4.00977 12.8062 3.79102C12.6031 3.57227 12.2848 3.46289 11.8512 3.46289C11.4996 3.46289 11.191 3.55664 10.9254 3.74414C10.6598 3.93164 10.4527 4.17773 10.3043 4.48242V9H9.22031V2.66016H10.2457ZM17.1691 9H16.0852V0H17.1691V9ZM20.2371 9H19.1531V2.66016H20.2371V9ZM19.0652 0.978516C19.0652 0.802734 19.118 0.654297 19.2234 0.533203C19.3328 0.412109 19.493 0.351562 19.7039 0.351562C19.9148 0.351562 20.075 0.412109 20.1844 0.533203C20.2938 0.654297 20.3484 0.802734 20.3484 0.978516C20.3484 1.1543 20.2938 1.30078 20.1844 1.41797C20.075 1.53516 19.9148 1.59375 19.7039 1.59375C19.493 1.59375 19.3328 1.53516 19.2234 1.41797C19.118 1.30078 19.0652 1.1543 19.0652 0.978516ZM23.1527 2.66016L23.1879 3.45703C23.6723 2.84766 24.3051 2.54297 25.0863 2.54297C26.4262 2.54297 27.102 3.29883 27.1137 4.81055V9H26.0297V4.80469C26.0258 4.34766 25.9203 4.00977 25.7133 3.79102C25.5102 3.57227 25.1918 3.46289 24.7582 3.46289C24.4066 3.46289 24.098 3.55664 23.8324 3.74414C23.5668 3.93164 23.3598 4.17773 23.2113 4.48242V9H22.1273V2.66016H23.1527ZM31.5293 9.11719C30.6699 9.11719 29.9707 8.83594 29.4316 8.27344C28.8926 7.70703 28.623 6.95117 28.623 6.00586V5.80664C28.623 5.17773 28.7422 4.61719 28.9805 4.125C29.2227 3.62891 29.5586 3.24219 29.9883 2.96484C30.4219 2.68359 30.8906 2.54297 31.3945 2.54297C32.2188 2.54297 32.8594 2.81445 33.3164 3.35742C33.7734 3.90039 34.002 4.67773 34.002 5.68945V6.14062H29.707C29.7227 6.76562 29.9043 7.27148 30.252 7.6582C30.6035 8.04102 31.0488 8.23242 31.5879 8.23242C31.9707 8.23242 32.2949 8.1543 32.5605 7.99805C32.8262 7.8418 33.0586 7.63477 33.2578 7.37695L33.9199 7.89258C33.3887 8.70898 32.5918 9.11719 31.5293 9.11719ZM31.3945 3.43359C30.957 3.43359 30.5898 3.59375 30.293 3.91406C29.9961 4.23047 29.8125 4.67578 29.7422 5.25H32.918V5.16797C32.8867 4.61719 32.7383 4.19141 32.4727 3.89062C32.207 3.58594 31.8477 3.43359 31.3945 3.43359ZM43.9055 5.90039C43.9055 6.86914 43.6828 7.64844 43.2375 8.23828C42.7922 8.82422 42.1945 9.11719 41.4445 9.11719C40.6437 9.11719 40.0246 8.83398 39.5871 8.26758L39.5344 9H38.5383V0H39.6223V3.35742C40.0598 2.81445 40.6633 2.54297 41.4328 2.54297C42.2023 2.54297 42.8059 2.83398 43.2434 3.41602C43.6848 3.99805 43.9055 4.79492 43.9055 5.80664V5.90039ZM42.8215 5.77734C42.8215 5.03906 42.6789 4.46875 42.3937 4.06641C42.1086 3.66406 41.6984 3.46289 41.1633 3.46289C40.4484 3.46289 39.9348 3.79492 39.6223 4.45898V7.20117C39.9543 7.86523 40.4719 8.19727 41.175 8.19727C41.6945 8.19727 42.0988 7.99609 42.3879 7.59375C42.677 7.19141 42.8215 6.58594 42.8215 5.77734ZM49.3406 9C49.2781 8.875 49.2273 8.65234 49.1883 8.33203C48.6844 8.85547 48.0828 9.11719 47.3836 9.11719C46.7586 9.11719 46.2449 8.94141 45.8426 8.58984C45.4441 8.23438 45.2449 7.78516 45.2449 7.24219C45.2449 6.58203 45.4949 6.07031 45.9949 5.70703C46.4988 5.33984 47.2059 5.15625 48.116 5.15625H49.1707V4.6582C49.1707 4.2793 49.0574 3.97852 48.8309 3.75586C48.6043 3.5293 48.2703 3.41602 47.8289 3.41602C47.4422 3.41602 47.118 3.51367 46.8563 3.70898C46.5945 3.9043 46.4637 4.14062 46.4637 4.41797H45.3738C45.3738 4.10156 45.4852 3.79688 45.7078 3.50391C45.9344 3.20703 46.2391 2.97266 46.6219 2.80078C47.0086 2.62891 47.4324 2.54297 47.8934 2.54297C48.6238 2.54297 49.1961 2.72656 49.6102 3.09375C50.0242 3.45703 50.2391 3.95898 50.2547 4.59961V7.51758C50.2547 8.09961 50.3289 8.5625 50.4773 8.90625V9H49.3406ZM47.5418 8.17383C47.8816 8.17383 48.2039 8.08594 48.5086 7.91016C48.8133 7.73438 49.034 7.50586 49.1707 7.22461V5.92383H48.3211C46.993 5.92383 46.3289 6.3125 46.3289 7.08984C46.3289 7.42969 46.4422 7.69531 46.6688 7.88672C46.8953 8.07812 47.1863 8.17383 47.5418 8.17383ZM53.1293 2.66016L53.1645 3.45703C53.6488 2.84766 54.2816 2.54297 55.0629 2.54297C56.4027 2.54297 57.0785 3.29883 57.0902 4.81055V9H56.0062V4.80469C56.0023 4.34766 55.8969 4.00977 55.6898 3.79102C55.4867 3.57227 55.1684 3.46289 54.7348 3.46289C54.3832 3.46289 54.0746 3.55664 53.809 3.74414C53.5434 3.93164 53.3363 4.17773 53.1879 4.48242V9H52.1039V2.66016H53.1293ZM60.6445 6.06445L59.9648 6.77344V9H58.8809V0H59.9648V5.44336L60.5449 4.74609L62.5195 2.66016H63.8379L61.3711 5.30859L64.125 9H62.8535L60.6445 6.06445ZM66.2848 9H65.2008V2.66016H66.2848V9ZM65.1129 0.978516C65.1129 0.802734 65.1656 0.654297 65.2711 0.533203C65.3805 0.412109 65.5406 0.351562 65.7516 0.351562C65.9625 0.351562 66.1227 0.412109 66.232 0.533203C66.3414 0.654297 66.3961 0.802734 66.3961 0.978516C66.3961 1.1543 66.3414 1.30078 66.232 1.41797C66.1227 1.53516 65.9625 1.59375 65.7516 1.59375C65.5406 1.59375 65.3805 1.53516 65.2711 1.41797C65.1656 1.30078 65.1129 1.1543 65.1129 0.978516ZM69.2004 2.66016L69.2355 3.45703C69.7199 2.84766 70.3527 2.54297 71.134 2.54297C72.4738 2.54297 73.1496 3.29883 73.1613 4.81055V9H72.0773V4.80469C72.0734 4.34766 71.968 4.00977 71.7609 3.79102C71.5578 3.57227 71.2395 3.46289 70.8059 3.46289C70.4543 3.46289 70.1457 3.55664 69.8801 3.74414C69.6145 3.93164 69.4074 4.17773 69.259 4.48242V9H68.175V2.66016H69.2004ZM74.6883 5.77734C74.6883 4.78906 74.9168 4.00391 75.3738 3.42188C75.8309 2.83594 76.4363 2.54297 77.1902 2.54297C77.9637 2.54297 78.5672 2.81641 79.0008 3.36328L79.0535 2.66016H80.0437V8.84766C80.0437 9.66797 79.7996 10.3145 79.3113 10.7871C78.827 11.2598 78.1746 11.4961 77.3543 11.4961C76.8973 11.4961 76.45 11.3984 76.0125 11.2031C75.575 11.0078 75.241 10.7402 75.0105 10.4004L75.573 9.75C76.0379 10.3242 76.6062 10.6113 77.2781 10.6113C77.8055 10.6113 78.2156 10.4629 78.5086 10.166C78.8055 9.86914 78.9539 9.45117 78.9539 8.91211V8.36719C78.5203 8.86719 77.9285 9.11719 77.1785 9.11719C76.4363 9.11719 75.8348 8.81836 75.3738 8.2207C74.9168 7.62305 74.6883 6.80859 74.6883 5.77734ZM75.7781 5.90039C75.7781 6.61523 75.9246 7.17773 76.2176 7.58789C76.5105 7.99414 76.9207 8.19727 77.448 8.19727C78.1316 8.19727 78.6336 7.88672 78.9539 7.26562V4.37109C78.6219 3.76562 78.1238 3.46289 77.4598 3.46289C76.9324 3.46289 76.5203 3.66797 76.2234 4.07812C75.9266 4.48828 75.7781 5.0957 75.7781 5.90039Z" fill="white"/>
</svg>
