<svg width="122" height="114" viewBox="0 0 122 114" fill="none" xmlns="http://www.w3.org/2000/svg">
<path d="M79.5653 29.1628L70.2827 9.27905L91.5001 10.6046L100.783 30.4884L79.5653 29.1628Z" fill="#E47DDA"/>
<path d="M64.9782 47.7209L55.6956 27.8372L70.2825 9.27905L79.5651 29.1628L64.9782 47.7209Z" fill="#823179"/>
<path d="M64.9783 47.7209L79.5652 29.1628L100.783 30.4884L86.1957 49.0465L64.9783 47.7209Z" fill="#BF357F"/>
<path d="M91.8264 63.5373L70.9482 56.7628L86.3881 42.1555L107.267 48.9297L91.8264 63.5373Z" fill="#E47DDA"/>
<path d="M95.4559 86.858L74.5777 80.0837L70.9482 56.7628L91.8264 63.5373L95.4559 86.858Z" fill="#823179"/>
<path d="M95.4557 86.8583L91.8264 63.5373L107.266 48.9299L110.896 72.2506L95.4557 86.8583Z" fill="#BF357F"/>
<path d="M61.2774 86.332L42.1757 97.1426L41.833 75.8946L60.9348 65.0842L61.2774 86.332Z" fill="#E47DDA"/>
<path d="M80.9304 99.4123L61.8286 110.223L42.1763 97.1427L61.2778 86.332L80.9304 99.4123Z" fill="#823179"/>
<path d="M80.9301 99.4125L61.2775 86.332L60.9348 65.0842L80.5872 78.1645L80.9301 99.4125Z" fill="#BF357F"/>
<path d="M29.7447 63.7063L13.428 49.029L33.4769 41.962L49.7936 56.6394L29.7447 63.7063Z" fill="#E47DDA"/>
<path d="M23.5707 86.4868L7.25391 71.8094L13.4273 49.0291L29.744 63.7067L23.5707 86.4868Z" fill="#823179"/>
<path d="M23.571 86.4868L29.7444 63.7067L49.7932 56.6398L43.62 79.4199L23.571 86.4868Z" fill="#BF357F"/>
<path d="M40.252 26.8295L18.3696 28.5575L27.0423 9.15561L48.9246 7.42761L40.252 26.8295Z" fill="#E47DDA"/>
<path d="M52.533 46.9868L30.6504 48.7149L18.3694 28.5578L40.2518 26.8298L52.533 46.9868Z" fill="#823179"/>
<path d="M52.5334 46.9869L40.2522 26.8295L48.9248 7.42761L61.206 27.5849L52.5334 46.9869Z" fill="#BF357F"/>
</svg>
