<?xml version="1.0" encoding="utf-8"?>
<!-- Generator: Adobe Illustrator 23.0.4, SVG Export Plug-In . SVG Version: 6.00 Build 0)  -->
<svg version="1.1" id="Layer_1" xmlns="http://www.w3.org/2000/svg" xmlns:xlink="http://www.w3.org/1999/xlink" x="0px" y="0px"
	 viewBox="0 0 35 35" style="enable-background:new 0 0 35 35;" xml:space="preserve">
<style type="text/css">
	.st0{fill:#FFFFFF;}
</style>
<title>fb</title>
<g>
	<g id="Layer_1-2">
		<path class="st0" d="M22.3,7.6h3.2c0.7,0,1.2-0.6,1.2-1.2V1.2c0-0.7-0.6-1.2-1.2-1.2h-4.4c0,0-0.1,0-0.2,0c-0.8,0-3.7,0.2-6,2.3
			c-2.5,2.3-2.2,5-2.1,5.7v3.3H9.6c-0.7,0-1.2,0.6-1.2,1.2v5.5c0,0.7,0.6,1.2,1.2,1.2h3v14.5c0,0.7,0.6,1.2,1.2,1.2H20
			c0.7,0,1.2-0.6,1.2-1.2V19.4h3.5c0.6,0,1.2-0.5,1.2-1.1l0.6-5.6c0.1-0.7-0.4-1.3-1.1-1.4c0,0-0.1,0-0.1,0h-4.2V8.5
			C21.3,7.9,21.4,7.6,22.3,7.6z M20.6,12.7h4.7L24.7,18h-4.1c-0.4,0-0.7,0.3-0.7,0.7l0,0v14.9h-5.9v-15c0-0.4-0.3-0.7-0.7-0.7
			c0,0,0,0,0,0H9.7v-5.2h3.7c0.4,0,0.7-0.3,0.7-0.7V7.9c0,0,0-0.1,0-0.1c-0.1-0.4-0.3-2.6,1.7-4.5c1.9-1.8,4.3-1.9,5-1.9
			c0.1,0,0.2,0,0.2,0h0h4.2v4.8h-3c-1.5,0-2.4,0.9-2.4,2.3V12C19.9,12.4,20.2,12.7,20.6,12.7C20.6,12.7,20.6,12.7,20.6,12.7
			L20.6,12.7z"/>
	</g>
</g>
</svg>
