<?xml version="1.0" encoding="utf-8"?>
<!-- Generator: Adobe Illustrator 23.0.4, SVG Export Plug-In . SVG Version: 6.00 Build 0)  -->
<svg version="1.1" id="Layer_1" xmlns="http://www.w3.org/2000/svg" xmlns:xlink="http://www.w3.org/1999/xlink" x="0px" y="0px"
	 viewBox="0 0 35 35" style="enable-background:new 0 0 35 35;" xml:space="preserve">
<style type="text/css">
	.st0{fill:#FFFFFF;}
</style>
<title>linkedin</title>
<g>
	<g id="Layer_1-2">
		<path class="st0" d="M8.7,10.9H2.1c-0.7,0-1.2,0.6-1.2,1.2v21.4c0,0.7,0.6,1.2,1.2,1.2h6.7c0.7,0,1.2-0.6,1.2-1.2V12.2
			C9.9,11.5,9.4,10.9,8.7,10.9z M8.6,33.4H2.2V12.3h6.3V33.4z"/>
		<path class="st0" d="M9,1.8c-2-2-5.2-2-7.2,0s-2,5.2,0,7.2S7,10.9,9,9c1-1,1.5-2.3,1.5-3.6C10.5,4.1,9.9,2.8,9,1.8z M5.4,9.1
			c-2,0-3.7-1.7-3.7-3.7s1.7-3.7,3.7-3.7s3.7,1.7,3.7,3.7S7.4,9.1,5.4,9.1z"/>
		<path class="st0" d="M33.3,14.1c-1.4-2.5-4-3.7-7.7-3.7c-2.3,0-4,0.8-5.2,1.6c-0.1-0.6-0.6-1.1-1.2-1.1h-6.4
			c-0.7,0-1.2,0.6-1.2,1.2v21.4c0,0.7,0.6,1.2,1.2,1.2h6.6c0.7,0,1.2-0.6,1.2-1.2V23c0-3.6,1-4.3,2.8-4.3c1.8,0,2.2,1,2.2,4.4v10.4
			c0,0.7,0.6,1.2,1.2,1.2h6.6c0.7,0,1.2-0.6,1.2-1.2V21.8C34.9,19.4,34.7,16.4,33.3,14.1z M33.5,33.4h-6.3V23.1c0-1.4,0-2.9-0.5-3.9
			c-0.5-1.3-1.6-1.9-3.1-1.9c-3.6,0-4.1,2.9-4.1,5.6v10.4H13V12.3h6.1v1.2c0,0.4,0.3,0.7,0.7,0.7c0.2,0,0.4-0.1,0.5-0.2
			c0.8-0.8,2.5-2.2,5.3-2.2c6.9,0,7.8,4.8,7.8,10L33.5,33.4L33.5,33.4z"/>
	</g>
</g>
</svg>
