<svg xmlns="http://www.w3.org/2000/svg" viewBox="0 0 196 40.74"><defs><style>.cls-1{fill:#1d242e;}.cls-2{isolation:isolate;}</style></defs><title>Asset 97</title><g id="Layer_2" data-name="Layer 2"><g id="Layer_1-2" data-name="Layer 1"><path class="cls-1" d="M79.43,21.55a5.74,5.74,0,0,0-2.05-1.06,11.23,11.23,0,0,0-3.06-.37H61.89q-2.64,0-2.64-1.95V16.88q0-1.95,2.64-1.95H79.78V11.81H61.89a10.85,10.85,0,0,0-3.06.37,5.63,5.63,0,0,0-2.06,1.05,4,4,0,0,0-1.16,1.61,5.69,5.69,0,0,0-.36,2.07v1.23a5.69,5.69,0,0,0,.36,2.07,4,4,0,0,0,1.16,1.61,5.63,5.63,0,0,0,2.06,1.05,10.85,10.85,0,0,0,3.06.37H74.32q2.64,0,2.64,2v2.67c0,1.3-.88,2-2.64,2H55.94v3.12H74.32a10.82,10.82,0,0,0,3.06-.38,5.58,5.58,0,0,0,2.05-1.05,3.92,3.92,0,0,0,1.16-1.61A5.65,5.65,0,0,0,81,27.83V25.22a5.69,5.69,0,0,0-.36-2.07A4,4,0,0,0,79.43,21.55Z"/><path class="cls-1" d="M107.81,14.84a4,4,0,0,0-1.15-1.61,5.63,5.63,0,0,0-2.06-1.05,10.85,10.85,0,0,0-3.06-.37H84.22V32.94h4V25.13h13.33a10.85,10.85,0,0,0,3.06-.37,5.63,5.63,0,0,0,2.06-1.05,4,4,0,0,0,1.15-1.61,5.69,5.69,0,0,0,.36-2.07V16.91A5.69,5.69,0,0,0,107.81,14.84Zm-3.63,5.22q0,1.95-2.64,2H88.21V14.93h13.33q2.64,0,2.64,1.95Z"/><polygon class="cls-1" points="182.04 11.81 179.13 11.81 167.36 29.51 142.51 29.51 163.97 14.51 163.97 11.81 135.58 11.81 110.96 11.81 110.96 32.94 132.7 32.94 132.7 29.82 114.96 29.82 114.96 23.33 131.8 23.33 131.8 20.21 114.96 20.21 114.96 15.22 135.58 15.22 135.58 15.23 156.95 15.23 135.58 30.23 135.58 32.94 154.06 32.94 165.08 32.94 169.3 32.94 169.53 32.94 180.6 15.92 191.5 32.94 195.43 32.94 196 32.94 182.04 11.81"/><g class="cls-2"><path class="cls-1" d="M40,37.76c.22-.2.51-.42.6-.34A1.53,1.53,0,0,1,40.26,39c-.43.38-.82.72-1.33,1.12a1.38,1.38,0,0,0,.33-1.45c0-.25.75-.9.76-.91"/><path class="cls-1" d="M27.6,33.22c.71.15.44,1.16,0,1.47a.64.64,0,0,1-.34.11c-1.37-.1-2.79-.15-4.22-.15a3.42,3.42,0,0,0,0-1.59c1.55,0,3.09,0,4.58.16"/><path class="cls-1" d="M38.34,36.29c.18-.18.52-.47.76-.4a4.56,4.56,0,0,1,1.17.94c.13.42-1.18,1.42-1.33,1.3a4,4,0,0,0-1.07-.87c-.22-.26.47-1,.47-1"/><path class="cls-1" d="M36.87,35.72c.05-.07.52-.61.86-.51l.48.21c.37.23-.47,1.28-1,1.41a.22.22,0,0,1-.17,0l-.44-.19c-.24-.14,0-.63.27-.91"/><path class="cls-1" d="M28.84,34a.91.91,0,0,1,.75-.57,35.78,35.78,0,0,1,6.86,1.34c.47.27-.31,1.31-.84,1.45a.4.4,0,0,1-.19,0A32.58,32.58,0,0,0,29.1,35c-.59-.15-.26-1-.26-1"/><path class="cls-1" d="M39.41,39.8l.35-.31c-.45.38-1,.89-1.51,1.25.3-.24.75-.59,1.16-.94"/><path class="cls-1" d="M20.4,33.84a.8.8,0,0,1,.65-.94c.9,0,1.09,1.31.61,1.8s-1.21,0-1.26-.86m-1.24-.1c.15,1.18,1.16,2.75,2.44,2.63,1.84-.38,2.07-3.78.33-4.85-1.34-.82-3,.21-2.77,2.22"/><path class="cls-1" d="M40.87,29.75c.15-.27.41-.57.73-.5s.8.38,1.15.58a7.24,7.24,0,0,1,1.1.74,11.35,11.35,0,0,0-.9,1.62,7.09,7.09,0,0,0-1.05-.71c-.34-.19-.7-.37-1.1-.55s.06-1.17.07-1.18"/><path class="cls-1" d="M19.67,27.24a.77.77,0,0,1,.7-.75c2.39-.09,4.79-.07,7.11.06a3.56,3.56,0,0,0-.19,1.8c-2.21-.12-4.51-.15-6.79-.06-.88-.07-.83-1-.83-1.05"/><path class="cls-1" d="M13,27.89a.71.71,0,0,1,.53-.82l.3,0c1.27-.17,2.58-.3,3.89-.4a1,1,0,0,1,.64,1.61.68.68,0,0,1-.39.18c-1.26.1-2.51.22-3.72.39l-.29,0c-.84,0-1-1-1-1"/><path class="cls-1" d="M36.86,28.53a.87.87,0,0,1,.81-.57q1.21.3,2.28.66c.61.33,0,1.55-.52,1.7a.54.54,0,0,1-.22,0c-.67-.22-1.39-.43-2.17-.62-.52-.22-.3-.94-.18-1.17"/><path class="cls-1" d="M31.69,28.63A3.7,3.7,0,0,0,32,27c1.12.14,2.21.31,3.25.5.76.26.37,1.38-.14,1.67a.64.64,0,0,1-.39.09c-1-.19-2-.34-3.11-.48l.05-.1"/><path class="cls-1" d="M10.23,28.5c-.08-.29-.08-.8.38-.93l.91-.17c.77-.09,1.24,1.1.8,1.6a.55.55,0,0,1-.28.16l-.87.16c-.49.07-.85-.44-.94-.82"/><path class="cls-1" d="M43.89,31.67c.19-.31.56-.79.72-.64.26.46-.79,2.09-1.11,2s0-.79.39-1.38m-.46-.42c-.41.72-1.47,2.89-1,3.33,1,.37,3.5-3.95,3-5.13-.23-.56-1.14.24-2,1.8"/><path class="cls-1" d="M28.76,27.43a1.11,1.11,0,0,1,1.06-.94c.93.14,1,1.48.25,2s-1.45-.05-1.33-1a.43.43,0,0,0,0-.11m-1.48-.1c-.16,1.23.38,3.08,2,3.14,2.39-.15,3.66-3.86,1.84-5.36-1.45-1.2-3.59,0-3.88,2.22"/><path class="cls-1" d="M37.05,21.22a.76.76,0,0,1,.78-.62,30.82,30.82,0,0,1,5.53,1.63A6.9,6.9,0,0,0,43,24.09a30,30,0,0,0-5.43-1.6c-.76-.28-.51-1.26-.5-1.27"/><path class="cls-1" d="M30.24,20.29a.89.89,0,0,1,.86-.69c1.49.14,2.93.33,4.31.55a1,1,0,0,1,.2,1.8.69.69,0,0,1-.43.1c-1.35-.22-2.77-.4-4.23-.54-.91-.2-.71-1.21-.71-1.22"/><path class="cls-1" d="M19,20.11a.92.92,0,0,1,.82-.81c1.6-.06,3.2-.08,4.79-.06A1,1,0,0,1,25,21a.83.83,0,0,1-.48.16c-1.56,0-3.13,0-4.7.06A1,1,0,0,1,19,20.11"/><path class="cls-1" d="M17.12,19.45a1,1,0,0,1,.58,1.72.84.84,0,0,1-.46.19c-1.44.11-2.87.25-4.25.44-1.16.16-2.24.33-3.26.53a4.3,4.3,0,0,0-.26-1.89c1-.2,2.14-.38,3.32-.54,1.41-.19,2.87-.34,4.33-.45"/><path class="cls-1" d="M47.22,26.21c.13-.49.18-.51.2-.52v0a1.67,1.67,0,0,1,0,.63c-.15.58-.32,1.36-.5,1.94a1.89,1.89,0,0,0,.07-.78,6.58,6.58,0,0,1,.25-1.3"/><path class="cls-1" d="M47.07,24.78c.16.42-.15,1.79-.42,1.84l0,0a4.52,4.52,0,0,0-1.11-1.13,5.91,5.91,0,0,0,.43-1.83,4.86,4.86,0,0,1,1.13,1.15"/><path class="cls-1" d="M26.68,20.17a.9.9,0,0,1,.88-.83l1.16.07a1,1,0,0,1,.43,1.73.8.8,0,0,1-.54.18c-.38,0-.75-.05-1.14-.06a.94.94,0,0,1-.79-1.09"/><path class="cls-1" d="M44.09,23.44c.1-.36.36-.92.75-.76.68.46.23,2.27-.35,2.33-.41,0-.61-.76-.4-1.57m-1-.43c-.3,1.31-.26,3.37.75,3.82,1.7.44,2.64-4,1.62-5.63-.74-1.14-1.92-.24-2.37,1.81"/><path class="cls-1" d="M6.64,22c0-.36.06-1.08.65-1.27.89-.15,1.31,1.3.79,2s-1.27.28-1.42-.65a.6.6,0,0,1,0-.12m-1.22.15c.18,1.68,1.35,3.18,2.81,2.73,2.31-1,1.76-5.32-.25-6C6.51,18.31,5.19,20,5.42,22.1"/><path class="cls-1" d="M5.74,14.73a1.2,1.2,0,0,1,.67-.9c1.37-.37,2.91-.69,4.61-1A3.2,3.2,0,0,0,11,14.72c-1.71.28-3.26.61-4.63,1-.64.08-.62-.73-.58-1"/><path class="cls-1" d="M18,12.84a1,1,0,0,1,.88-.78c2.7-.14,5.42-.15,8.06,0a3.36,3.36,0,0,0,0,1.86c-2.66-.11-5.4-.1-8.11,0A.88.88,0,0,1,18,12.84"/><path class="cls-1" d="M38.58,15.18a3.8,3.8,0,0,0-.09-1.76,33,33,0,0,1,4.59,1.33c.71.39.73,1.72.3,1.88a.45.45,0,0,1-.2,0,33.45,33.45,0,0,0-4.62-1.33.43.43,0,0,0,0-.11"/><path class="cls-1" d="M1.8,16.24a1.44,1.44,0,0,1,.48-.95,18.33,18.33,0,0,1,2-.83c.67-.12.57,1.1.22,1.6a.71.71,0,0,1-.32.27,22,22,0,0,0-2.06.83c-.43.12-.4-.65-.36-.92"/><path class="cls-1" d="M0,17.51a2.19,2.19,0,0,1,.35-1.07c.13-.1.27-.21.43-.31s.35.68.15,1.36c-.11.39-.23.49-.27.52s-.3.21-.43.31S0,17.92,0,17.51"/><path class="cls-1" d="M44.35,16c0-.07,0-.66.4-.52A8.54,8.54,0,0,1,47,17a2.64,2.64,0,0,1,.82,1.54c0,.62.12,1.44.14,2.05,0-1-.84-2-2.52-2.95l-.56-.31A1.79,1.79,0,0,1,44.35,16"/><path class="cls-1" d="M12.5,13.44a1.35,1.35,0,0,1,1.1-1.16c1.05-.07,1.34,1.12.7,1.88a1,1,0,0,1-1.81-.49,1.77,1.77,0,0,1,0-.23m-1.64.24a2.48,2.48,0,0,0,3,2.79c2.75-.79,3.29-4.47,1.39-5.65s-4.2.53-4.37,2.86"/><path class="cls-1" d="M28.51,12.91a1,1,0,0,1,1-1,1.24,1.24,0,0,1,.7,2.1c-.72.61-1.83-.11-1.74-1.14m-1.73-.1a3.23,3.23,0,0,0,3.07,3.39C32.6,15.94,33,12.34,31,10.8a2.55,2.55,0,0,0-4.22,2"/><path class="cls-1" d="M35.35,13.63a.82.82,0,0,1,.89-.87,1.33,1.33,0,0,1,.6,2.21c-.63.44-1.54-.37-1.49-1.34m-1.56-.41c-.08,1.45.82,3.58,2.7,3.81,2.47,0,2.81-3.43,1-5.23C36,10.21,33.92,11,33.79,13.22"/><path class="cls-1" d="M46.06,11.77l-.18-.43.24.56.43,1.15v0l-.48-1.24"/><path class="cls-1" d="M23,7.09a2.33,2.33,0,0,0,0-1.42c2,0,4,.06,6,.2.93.16,1.1,1.11.6,1.42a.8.8,0,0,1-.43.09c-2-.14-4.06-.21-6.14-.2a.94.94,0,0,1,0-.09"/><path class="cls-1" d="M43.78,9.77c0-.13-.14-.55.12-.42a5.87,5.87,0,0,1,1.52,1.23,5.34,5.34,0,0,1,.7,1.67h0l0,0A6.05,6.05,0,0,0,44.51,11a3,3,0,0,1-.73-1.19"/><path class="cls-1" d="M41.88,9c-.07-.24-.1-.62.23-.51s.43.18.63.28c.57.3,1,1.49.73,1.61a.22.22,0,0,1-.16,0l-.64-.28A1.92,1.92,0,0,1,41.88,9"/><path class="cls-1" d="M30.87,6.62c0-.15.09-.52.65-.51a46.44,46.44,0,0,1,8.93,1.75c.75.33,1.07,1.45.71,1.58a.45.45,0,0,1-.2,0,48.15,48.15,0,0,0-9.2-1.81,1,1,0,0,1-.89-1"/><path class="cls-1" d="M19.36,6.41a1.14,1.14,0,0,1,1.09-.87.88.88,0,0,1,.64,1.58c-.69.62-1.81.23-1.74-.61,0,0,0-.07,0-.1m-1.62-.06c-.32,1.38.74,2.82,2.75,2.67,2.64-.39,3.36-3.13,1.72-4.37a3,3,0,0,0-4.47,1.7"/><path class="cls-1" d="M39.36,3.66c-.18-.26-.13-.31-.12-.34l.11,0c.37.16.7.33,1,.5a7.25,7.25,0,0,1,1,.65c.34.4.65.78,1.07,1.32a6.35,6.35,0,0,0-1-.69,11.85,11.85,0,0,0-1.07-.53,3.3,3.3,0,0,1-1-.93"/><path class="cls-1" d="M20,1.38A.87.87,0,0,1,20.8.92C22.88.85,25,.87,27,1a1.59,1.59,0,0,0,.21,1.1C25.07,2,22.85,1.94,20.64,2c-.7,0-.66-.48-.6-.64"/><path class="cls-1" d="M14,2a1.32,1.32,0,0,1,.85-.53l.26,0c1.11-.15,2.25-.27,3.4-.35.69,0,.64.53.35.81a1.14,1.14,0,0,1-.65.3c-1.22.09-2.43.21-3.6.37l-.28,0c-.64,0-.45-.43-.33-.6"/><path class="cls-1" d="M35.71,2.55c-.08-.18-.11-.38.21-.34q1.06.27,2,.57c.67.29,1.25,1.14,1,1.23a.26.26,0,0,1-.15,0c-.65-.22-1.35-.42-2.1-.61a1.8,1.8,0,0,1-1-.84"/><path class="cls-1" d="M33.82,1.76c.73.2,1.16.92.91,1.12a.53.53,0,0,1-.28,0c-1-.18-2-.33-3-.46A2,2,0,0,0,31,1.33c1,.12,1.94.27,2.84.43"/><path class="cls-1" d="M11.38,2.5a1.74,1.74,0,0,1,.89-.63l.79-.15c.48-.07.43.32.19.63a1.5,1.5,0,0,1-.81.52L11.59,3c-.44.07-.39-.27-.21-.53"/><path class="cls-1" d="M42.18,5.41,41.82,5l.1.11c.37.45.87,1,1.22,1.51-.09-.11-.53-.68-1-1.2M41.76,5c.69.85,1.12,1.41,2.39,3.08l0,0a22.86,22.86,0,0,0-2.26-3c-.39-.42-.9-1-1.31-1.4h0c.29.29.68.74,1.15,1.31"/><path class="cls-1" d="M28.35,1.53c0-.21.07-.56.64-.53.85.11,1.34.93.91,1.27s-1.46-.12-1.55-.74M27,1.44a3,3,0,0,0,2.89,2.19c1.76,0,1.95-1.46.86-2.56C29.27-.43,27-.33,27,1.24a1.36,1.36,0,0,0,0,.2"/></g></g></g></svg>