<?xml version="1.0" encoding="utf-8"?>
<!-- Generator: Adobe Illustrator 23.0.4, SVG Export Plug-In . SVG Version: 6.00 Build 0)  -->
<svg version="1.1" id="Layer_1" xmlns="http://www.w3.org/2000/svg" xmlns:xlink="http://www.w3.org/1999/xlink" x="0px" y="0px"
	 viewBox="0 0 35 35" style="enable-background:new 0 0 35 35;" xml:space="preserve">
<style type="text/css">
	.st0{fill:#FFFFFF;}
</style>
<title>tele</title>
<g>
	<g id="Layer_1-2">
		<path class="st0" d="M26.2,7.2L12,17.2c-0.8,0.6-1.2,1.7-0.9,2.7l1.5,6.2c0.1,0.5,0.5,0.9,1,0.9c0,0,0.1,0,0.1,0
			c0.5,0,0.9-0.5,1-1l0.4-3.4c0.1-0.5,0.2-0.9,0.5-1.2L27.3,8.9c0.4-0.4,0.4-1.1,0.1-1.5C27.1,7,26.6,6.9,26.2,7.2L26.2,7.2z
			 M14.7,20.2c-0.5,0.6-0.9,1.3-1,2.1l-0.2,1.6l-1.1-4.5c-0.1-0.4,0-0.8,0.3-1l10.4-7.3L14.7,20.2z"/>
		<path class="st0" d="M34.2,0.7c-0.4-0.4-1.1-0.5-1.6-0.3L1.3,14.2c-0.8,0.4-1.2,1.4-0.9,2.3c0.2,0.5,0.5,0.9,0.9,1l7.3,3.1
			l2.9,10.5c0.3,1,1.1,1.5,2,1.2c0.2-0.1,0.4-0.2,0.5-0.3l4.3-4c0.2-0.2,0.5-0.2,0.7,0l7.7,6.4c0.7,0.6,1.7,0.4,2.2-0.4
			c0.1-0.2,0.2-0.4,0.3-0.7l5.6-30.9C34.8,1.8,34.6,1.1,34.2,0.7z M33.4,2.1L27.8,33c0,0.1-0.1,0.2-0.3,0.2c0,0-0.1,0-0.1,0
			l-7.7-6.4c-0.7-0.6-1.7-0.6-2.4,0.1l-4.3,4c-0.1,0.1-0.2,0.1-0.3,0c0,0,0-0.1,0-0.1l-3-10.8c-0.1-0.2-0.2-0.4-0.4-0.5l-7.6-3.3
			c-0.1,0-0.1-0.1-0.1-0.2c0-0.1,0.1-0.2,0.1-0.2L33.1,1.8l0,0c0.1,0,0.2,0,0.3,0.1C33.4,2,33.4,2.1,33.4,2.1z"/>
	</g>
</g>
</svg>
