<svg width="37" height="15" viewBox="0 0 37 15" fill="none" xmlns="http://www.w3.org/2000/svg">
<rect x="4" y="1" width="30" height="13" rx="3" fill="url(#paint0_linear)"/>
<mask id="mask0" mask-type="alpha" maskUnits="userSpaceOnUse" x="4" y="1" width="30" height="13">
<rect x="4" y="1" width="30" height="13" rx="3" fill="url(#paint1_linear)"/>
</mask>
<g mask="url(#mask0)">
<g style="mix-blend-mode:multiply" opacity="0.2">
<path d="M2 0L17.75 6.75L36.5 15H2V0Z" fill="url(#paint2_linear)"/>
</g>
</g>
<path d="M9.09257 10.3V3.90155H11.1844C11.8787 3.90155 12.4002 4.0451 12.7488 4.33221C13.1004 4.61932 13.2762 5.04413 13.2762 5.60663C13.2762 5.90546 13.1912 6.17059 13.0213 6.40204C12.8514 6.63055 12.6199 6.8078 12.3269 6.93378C12.6727 7.03046 12.9451 7.21503 13.1443 7.48749C13.3465 7.75702 13.4476 8.07928 13.4476 8.45428C13.4476 9.0285 13.2615 9.47968 12.8894 9.8078C12.5174 10.1359 11.9915 10.3 11.3118 10.3H9.09257ZM9.93632 7.30731V9.61005H11.3294C11.722 9.61005 12.031 9.50897 12.2566 9.30682C12.4852 9.10175 12.5994 8.8205 12.5994 8.46307C12.5994 7.69257 12.1805 7.30731 11.3426 7.30731H9.93632ZM9.93632 6.63055H11.2107C11.5799 6.63055 11.8743 6.53827 12.094 6.3537C12.3167 6.16913 12.428 5.91864 12.428 5.60223C12.428 5.25067 12.3255 4.99579 12.1204 4.83759C11.9153 4.67645 11.6033 4.59589 11.1844 4.59589H9.93632V6.63055ZM18.1167 7.34247H15.3437V9.61005H18.5649V10.3H14.5V3.90155H18.521V4.59589H15.3437V6.65253H18.1167V7.34247ZM23.924 4.59589H21.8674V10.3H21.028V4.59589H18.9758V3.90155H23.924V4.59589ZM27.8549 8.63007H25.1742L24.5722 10.3H23.702L26.1454 3.90155H26.8837L29.3314 10.3H28.4657L27.8549 8.63007ZM25.4291 7.93573H27.6044L26.5145 4.94305L25.4291 7.93573Z" fill="white"/>
<path d="M-1.31134e-07 8L4.5 5.40192L4.5 10.5981L-1.31134e-07 8Z" fill="#A1469E"/>
<defs>
<linearGradient id="paint0_linear" x1="-3.28155" y1="9.69464" x2="40.4062" y2="9.5147" gradientUnits="userSpaceOnUse">
<stop stop-color="#BE55AD"/>
<stop offset="1" stop-color="#543D8F"/>
</linearGradient>
<linearGradient id="paint1_linear" x1="-3.28155" y1="9.69464" x2="40.4062" y2="9.5147" gradientUnits="userSpaceOnUse">
<stop stop-color="#BE55AD"/>
<stop offset="1" stop-color="#543D8F"/>
</linearGradient>
<linearGradient id="paint2_linear" x1="-6.37379" y1="10.0323" x2="43.8672" y2="9.82603" gradientUnits="userSpaceOnUse">
<stop stop-color="#BE55AD"/>
<stop offset="1" stop-color="#543D8F"/>
</linearGradient>
</defs>
</svg>
